<svg width="280" height="280" viewBox="0 0 280 280" fill="none" xmlns="http://www.w3.org/2000/svg">
<g clip-path="url(#clip0_9_10)">
<circle cx="140" cy="140" r="140" fill="#181818"/>
<g filter="url(#filter0_d_9_10)">
<g style="mix-blend-mode:difference">
<path d="M123 198.8C122.6 200.8 121.4 202.533 119.4 204C117.533 205.333 114.867 206 111.4 206C108.467 206 106.133 205.2 104.4 203.6C102.8 202 101.933 200.333 101.8 198.6C102.6 193 103 184.6 103 173.4C103 166.733 102.6 156.467 101.8 142.6C100.867 129.533 100.4 117.933 100.4 107.8C100.4 102.333 100.667 96.7333 101.2 91C101.2 89.1333 102.267 87.1333 104.4 85C106.667 82.8667 109.733 81.5333 113.6 81C126.267 79.6667 141.8 79 160.2 79H166.6C171.4 79 176.067 79.8667 180.6 81.6C185.267 83.3333 187.6 86.3333 187.6 90.6C187.6 93.4 186.933 95.6 185.6 97.2C184.267 98.8 181.8 99.6 178.2 99.6C176.467 99.6 174.467 99.4667 172.2 99.2C169.933 98.9333 168.333 98.7333 167.4 98.6C162.333 97.8 158.4 97.4 155.6 97.4C140.133 97.4 128.467 98.4667 120.6 100.6C120.6 105 120.733 112.133 121 122L121.2 134.8C128.133 134.8 134.333 134.533 139.8 134C145.267 133.333 148.4 132.933 149.2 132.8C156.133 132 160.733 131.6 163 131.6C166.2 131.6 168.867 132.333 171 133.8C173.267 135.133 174.4 137.267 174.4 140.2C174.4 146.867 169.733 150.2 160.4 150.2C158.133 150.2 156.133 150.267 154.4 150.4C152.667 150.533 151.2 150.667 150 150.8C145.2 151.333 141.4 151.6 138.6 151.6C132.467 151.6 127.267 151.8 123 152.2C123 157.133 123.2 162.333 123.6 167.8C123.6 169.533 123.667 172.2 123.8 175.8C124.067 179.4 124.2 182.667 124.2 185.6C124.2 188.133 124.133 190.467 124 192.6C123.867 194.733 123.533 196.8 123 198.8Z" fill="white"/>
<path d="M123 198.8L122.034 198.542L122.026 198.573L122.019 198.604L123 198.8ZM119.4 204L119.981 204.814L119.991 204.806L119.4 204ZM104.4 203.6L103.693 204.307L103.707 204.321L103.722 204.335L104.4 203.6ZM101.8 198.6L100.81 198.459L100.795 198.567L100.803 198.677L101.8 198.6ZM101.8 142.6L102.798 142.542L102.797 142.529L101.8 142.6ZM101.2 91L102.196 91.0926L102.2 91.0464V91H101.2ZM104.4 85L103.715 84.2718L103.704 84.2822L103.693 84.2929L104.4 85ZM113.6 81L113.495 80.0055L113.479 80.0072L113.463 80.0094L113.6 81ZM180.6 81.6L180.243 82.5341L180.252 82.5374L180.6 81.6ZM172.2 99.2L172.317 98.2068L172.317 98.2068L172.2 99.2ZM167.4 98.6L167.244 99.5878L167.251 99.5889L167.259 99.5899L167.4 98.6ZM120.6 100.6L120.338 99.6349L119.6 99.8351V100.6H120.6ZM121 122L122 121.984L122 121.973L121 122ZM121.2 134.8L120.2 134.816L120.216 135.8H121.2V134.8ZM139.8 134L139.897 134.995L139.909 134.994L139.921 134.993L139.8 134ZM149.2 132.8L149.085 131.807L149.06 131.809L149.036 131.814L149.2 132.8ZM171 133.8L170.433 134.624L170.463 134.644L170.493 134.662L171 133.8ZM154.4 150.4L154.323 149.403L154.323 149.403L154.4 150.4ZM150 150.8L149.89 149.806L149.89 149.806L150 150.8ZM123 152.2L122.907 151.204L122 151.289V152.2H123ZM123.6 167.8H124.6V167.763L124.597 167.727L123.6 167.8ZM123.8 175.8L122.801 175.837L122.801 175.855L122.803 175.874L123.8 175.8ZM124 192.6L124.998 192.662L124 192.6ZM122.019 198.604C121.678 200.309 120.653 201.841 118.809 203.194L119.991 204.806C122.147 203.226 123.522 201.291 123.981 198.996L122.019 198.604ZM118.819 203.186C117.188 204.351 114.759 205 111.4 205V207C114.975 207 117.878 206.316 119.981 204.814L118.819 203.186ZM111.4 205C108.654 205 106.585 204.256 105.078 202.865L103.722 204.335C105.682 206.144 108.279 207 111.4 207V205ZM105.107 202.893C103.624 201.41 102.907 199.954 102.797 198.523L100.803 198.677C100.96 200.712 101.976 202.59 103.693 204.307L105.107 202.893ZM102.79 198.741C103.6 193.069 104 184.611 104 173.4H102C102 184.589 101.6 192.931 100.81 198.459L102.79 198.741ZM104 173.4C104 166.703 103.599 156.412 102.798 142.542L100.802 142.658C101.601 156.521 102 166.764 102 173.4H104ZM102.797 142.529C101.865 129.479 101.4 117.904 101.4 107.8H99.4C99.4 117.963 99.868 129.587 100.803 142.671L102.797 142.529ZM101.4 107.8C101.4 102.366 101.665 96.7968 102.196 91.0926L100.204 90.9074C99.6683 96.6699 99.4 102.301 99.4 107.8H101.4ZM102.2 91C102.2 89.5222 103.051 87.7636 105.107 85.7071L103.693 84.2929C101.483 86.503 100.2 88.7444 100.2 91H102.2ZM105.085 85.7282C107.166 83.7697 110.023 82.5028 113.737 81.9906L113.463 80.0094C109.444 80.5638 106.167 81.9636 103.715 84.2718L105.085 85.7282ZM113.705 81.9945C126.325 80.666 141.821 80 160.2 80V78C141.779 78 126.208 78.6673 113.495 80.0055L113.705 81.9945ZM160.2 80H166.6V78H160.2V80ZM166.6 80C171.277 80 175.822 80.8438 180.243 82.534L180.957 80.6659C176.311 78.8895 171.523 78 166.6 78V80ZM180.252 82.5374C182.464 83.359 184.038 84.4496 185.061 85.7639C186.074 87.067 186.6 88.6603 186.6 90.6H188.6C188.6 88.273 187.959 86.233 186.639 84.5361C185.328 82.8504 183.403 81.5743 180.948 80.6626L180.252 82.5374ZM186.6 90.6C186.6 93.2469 185.971 95.1931 184.832 96.5598L186.368 97.8402C187.896 96.0069 188.6 93.5531 188.6 90.6H186.6ZM184.832 96.5598C183.79 97.8101 181.71 98.6 178.2 98.6V100.6C181.89 100.6 184.743 99.7899 186.368 97.8402L184.832 96.5598ZM178.2 98.6C176.516 98.6 174.556 98.4703 172.317 98.2068L172.083 100.193C174.377 100.463 176.418 100.6 178.2 100.6V98.6ZM172.317 98.2068C170.05 97.9402 168.461 97.7414 167.541 97.6101L167.259 99.5899C168.205 99.7252 169.817 99.9265 172.083 100.193L172.317 98.2068ZM167.556 97.6122C162.473 96.8096 158.479 96.4 155.6 96.4V98.4C158.321 98.4 162.194 98.7904 167.244 99.5878L167.556 97.6122ZM155.6 96.4C140.109 96.4 128.335 97.4661 120.338 99.6349L120.862 101.565C128.598 99.4672 140.158 98.4 155.6 98.4V96.4ZM119.6 100.6C119.6 105.015 119.734 112.16 120 122.027L122 121.973C121.733 112.107 121.6 104.985 121.6 100.6H119.6ZM120 122.016L120.2 134.816L122.2 134.784L122 121.984L120 122.016ZM121.2 135.8C128.158 135.8 134.391 135.532 139.897 134.995L139.703 133.005C134.276 133.534 128.109 133.8 121.2 133.8V135.8ZM139.921 134.993C145.373 134.328 148.537 133.924 149.364 133.786L149.036 131.814C148.263 131.942 145.161 132.339 139.679 133.007L139.921 134.993ZM149.315 133.793C156.259 132.992 160.801 132.6 163 132.6V130.6C160.666 130.6 156.008 131.008 149.085 131.807L149.315 133.793ZM163 132.6C166.046 132.6 168.503 133.297 170.433 134.624L171.567 132.976C169.231 131.37 166.354 130.6 163 130.6V132.6ZM170.493 134.662C172.414 135.792 173.4 137.572 173.4 140.2H175.4C175.4 136.962 174.119 134.475 171.507 132.938L170.493 134.662ZM173.4 140.2C173.4 143.27 172.344 145.44 170.319 146.886C168.232 148.377 164.978 149.2 160.4 149.2V151.2C165.156 151.2 168.902 150.356 171.481 148.514C174.123 146.627 175.4 143.796 175.4 140.2H173.4ZM160.4 149.2C158.115 149.2 156.088 149.267 154.323 149.403L154.477 151.397C156.178 151.266 158.152 151.2 160.4 151.2V149.2ZM154.323 149.403C152.583 149.537 151.104 149.671 149.89 149.806L150.11 151.794C151.296 151.662 152.75 151.53 154.477 151.397L154.323 149.403ZM149.89 149.806C145.104 150.338 141.346 150.6 138.6 150.6V152.6C141.454 152.6 145.296 152.329 150.11 151.794L149.89 149.806ZM138.6 150.6C132.448 150.6 127.214 150.801 122.907 151.204L123.093 153.196C127.319 152.799 132.486 152.6 138.6 152.6V150.6ZM122 152.2C122 157.16 122.201 162.385 122.603 167.873L124.597 167.727C124.199 162.282 124 157.106 124 152.2H122ZM122.6 167.8C122.6 169.553 122.667 172.235 122.801 175.837L124.799 175.763C124.666 172.165 124.6 169.514 124.6 167.8H122.6ZM122.803 175.874C123.068 179.455 123.2 182.696 123.2 185.6H125.2C125.2 182.637 125.065 179.345 124.797 175.726L122.803 175.874ZM123.2 185.6C123.2 188.116 123.134 190.428 123.002 192.538L124.998 192.662C125.133 190.505 125.2 188.15 125.2 185.6H123.2ZM123.002 192.538C122.873 194.607 122.55 196.608 122.034 198.542L123.966 199.058C124.517 196.992 124.861 194.86 124.998 192.662L123.002 192.538Z" fill="url(#paint0_radial_9_10)"/>
</g>
</g>
<circle cx="140" cy="140" r="132" stroke="white" stroke-width="16"/>
</g>
<defs>
<filter id="filter0_d_9_10" x="96.4" y="79" width="95.2" height="135" filterUnits="userSpaceOnUse" color-interpolation-filters="sRGB">
<feFlood flood-opacity="0" result="BackgroundImageFix"/>
<feColorMatrix in="SourceAlpha" type="matrix" values="0 0 0 0 0 0 0 0 0 0 0 0 0 0 0 0 0 0 127 0" result="hardAlpha"/>
<feOffset dy="4"/>
<feGaussianBlur stdDeviation="2"/>
<feComposite in2="hardAlpha" operator="out"/>
<feColorMatrix type="matrix" values="0 0 0 0 0 0 0 0 0 0 0 0 0 0 0 0 0 0 0.25 0"/>
<feBlend mode="normal" in2="BackgroundImageFix" result="effect1_dropShadow_9_10"/>
<feBlend mode="normal" in="SourceGraphic" in2="effect1_dropShadow_9_10" result="shape"/>
</filter>
<radialGradient id="paint0_radial_9_10" cx="0" cy="0" r="1" gradientUnits="userSpaceOnUse" gradientTransform="translate(139.891 127.14) rotate(90) scale(111.14 53.8912)">
<stop stop-color="white"/>
<stop offset="1" stop-color="white" stop-opacity="0"/>
</radialGradient>
<clipPath id="clip0_9_10">
<rect width="280" height="280" fill="white"/>
</clipPath>
</defs>
</svg>
